<svg xmlns="http://www.w3.org/2000/svg" height="24" viewBox="0 -960 960 960" width="24" fill="white"><path d="M738-440v-113H625v-106h113v-112h106v112h112v106H844v113H738Zm-374.841-62Q278-502 219.5-561 161-620 161-704.5T219.341-847q58.34-58 143.5-58Q448-905 506.5-847.112 565-789.225 565-704q0 84-58.341 143-58.34 59-143.5 59ZM-3-86v-159q0-46.774 23.79-84.467Q44.577-367.161 84-387q66-34 136.174-51t142.541-17Q437-455 507-438t135 50q39.422 19.693 63.211 57.111Q729-293.472 729-245.055V-86H-3Zm136-136h460v-18q0-10.029-4.875-17.801Q583.25-265.572 575-269q-48-24-102-37t-110.5-13q-54.5 0-110 13T151-269q-8.25 3.428-13.125 11.199Q133-250.029 133-240v18Zm229.965-416Q390-638 409.5-657.465q19.5-19.464 19.5-46.5Q429-731 409.535-750.5q-19.464-19.5-46.5-19.5Q336-770 316.5-750.319 297-730.638 297-704q0 27.05 19.465 46.525Q335.929-638 362.965-638Zm.035-66Zm0 482Z"/></svg>